# xmcd CD database file
#
# Track frame offsets:
#	150
#	17185
#	30357
#	46015
#	56347
#	69477
#	84072
#	95517
#	110700
#	126567
#	143445
#	154445
#
# Disc length: 2236 seconds
#
# Revision: 0
# Processed by: cddbd v1.5.2PL0 Copyright (c) Steve Scherf et al.
# Submitted via: CDex 1.51
#
DISCID=9508ba0c
DTITLE=Rita Engebretsen og Helge Borglund - Frem fra Glemselen kapittel 19
DYEAR=1998
DGENRE=Schillingsviser
TTITLE0=Rita Engebretsen og Helge Borglund - Elin og herremannen
TTITLE1=Helge Borglund - Jeg er jo kun en fattig gatesanger
TTITLE2=Rita Engebretsen - Syng for meg sangen om Jesus
TTITLE3=Helge Borglund - Spillemannen
TTITLE4=Rita Engebretsen - Lille Sami
TTITLE5=Helge Borglund - De hvite fjell ved Dover
TTITLE6=Rita Engebretsen - Maren i Myra
TTITLE7=Helge Borglund - Sonja
TTITLE8=Rita Engebretsen - Emigrantvalsen
TTITLE9=Helge Borglund - Cowboyens avskjed
TTITLE10=Rita Engebretsen - Kom måke fortell hva du så
TTITLE11=Rita Engebretsen og Helge Borglund - Det som eingong var
EXTD=YEAR: 1998
EXTT0=
EXTT1=
EXTT2=
EXTT3=
EXTT4=
EXTT5=
EXTT6=
EXTT7=
EXTT8=
EXTT9=
EXTT10=
EXTT11=
PLAYORDER=
